<svg xmlns="http://www.w3.org/2000/svg" width="225" height="225" viewBox="0 0 225 225" version="1.1"><path d="M 79.455 50.455 L 77 52.909 77 114.955 L 77 177 83.500 177 L 90 177 90 148 L 90 119 99.500 119 C 107.887 119, 108.998 119.205, 108.984 120.750 C 108.976 121.713, 107.672 134.200, 106.087 148.500 C 104.502 162.800, 103.411 174.838, 103.662 175.250 C 103.913 175.662, 106.743 176, 109.951 176 C 115.181 176, 115.836 175.768, 116.296 173.750 C 116.579 172.513, 118.075 159.669, 119.622 145.208 L 122.435 118.916 128.467 119.208 L 134.500 119.500 134.765 148.250 L 135.031 177 141.515 177 L 148 177 148 143.955 L 148 110.909 145.545 108.455 L 143.091 106 116.545 106 L 90 106 90 100 C 90 96.700, 90.112 93.960, 90.250 93.912 C 90.388 93.863, 103.100 92.398, 118.500 90.654 L 146.500 87.485 146.798 81.243 L 147.095 75 143.298 75.017 C 141.209 75.026, 129.825 76.144, 118 77.500 C 106.175 78.856, 95.021 79.974, 93.212 79.983 L 89.925 80 90.212 70.750 L 90.500 61.500 119.250 61.235 L 148 60.969 148 54.485 L 148 48 114.955 48 L 81.909 48 79.455 50.455" stroke="none" fill="#fcf9f8" fill-rule="evenodd"/><path d="M -0 112.504 L -0 225.009 112.750 224.754 L 225.500 224.500 225.754 112.250 L 226.009 0 113.004 0 L 0 0 -0 112.504 M 0.483 113 C 0.483 174.875, 0.603 200.188, 0.750 169.250 C 0.897 138.313, 0.897 87.688, 0.750 56.750 C 0.603 25.813, 0.483 51.125, 0.483 113 M 79.455 50.455 L 77 52.909 77 114.955 L 77 177 83.500 177 L 90 177 90 148 L 90 119 99.500 119 C 107.887 119, 108.998 119.205, 108.984 120.750 C 108.976 121.713, 107.672 134.200, 106.087 148.500 C 104.502 162.800, 103.411 174.838, 103.662 175.250 C 103.913 175.662, 106.743 176, 109.951 176 C 115.181 176, 115.836 175.768, 116.296 173.750 C 116.579 172.513, 118.075 159.669, 119.622 145.208 L 122.435 118.916 128.467 119.208 L 134.500 119.500 134.765 148.250 L 135.031 177 141.515 177 L 148 177 148 143.955 L 148 110.909 145.545 108.455 L 143.091 106 116.545 106 L 90 106 90 100 C 90 96.700, 90.112 93.960, 90.250 93.912 C 90.388 93.863, 103.100 92.398, 118.500 90.654 L 146.500 87.485 146.798 81.243 L 147.095 75 143.298 75.017 C 141.209 75.026, 129.825 76.144, 118 77.500 C 106.175 78.856, 95.021 79.974, 93.212 79.983 L 89.925 80 90.212 70.750 L 90.500 61.500 119.250 61.235 L 148 60.969 148 54.485 L 148 48 114.955 48 L 81.909 48 79.455 50.455" stroke="none" fill="#fc4b04" fill-rule="evenodd"/></svg>